<mxfile host="app.diagrams.net" modified="2020-05-11T18:43:44.348Z" agent="5.0 (Windows NT 10.0; Win64; x64) AppleWebKit/537.36 (KHTML, like Gecko) Chrome/81.0.4044.138 Safari/537.36" etag="O15Zi1RUgE36XgIqHMKP" version="13.0.9" type="github">
  <diagram id="4K81Am91HVjqWwRLbeYU" name="Page-1">
    <mxGraphModel dx="782" dy="469" grid="1" gridSize="10" guides="1" tooltips="1" connect="1" arrows="1" fold="1" page="1" pageScale="1" pageWidth="827" pageHeight="1169" math="0" shadow="0">
      <root>
        <mxCell id="0" />
        <mxCell id="1" parent="0" />
        <mxCell id="SsuHrfjVvnLRws1MBkG0-1" value="" style="ellipse;html=1;shape=startState;fillColor=#000000;strokeColor=#ff0000;" vertex="1" parent="1">
          <mxGeometry x="384" y="10" width="30" height="30" as="geometry" />
        </mxCell>
        <mxCell id="SsuHrfjVvnLRws1MBkG0-2" value="" style="edgeStyle=orthogonalEdgeStyle;html=1;verticalAlign=bottom;endArrow=open;endSize=8;strokeColor=#ff0000;" edge="1" source="SsuHrfjVvnLRws1MBkG0-1" parent="1">
          <mxGeometry relative="1" as="geometry">
            <mxPoint x="399" y="100" as="targetPoint" />
          </mxGeometry>
        </mxCell>
        <mxCell id="SsuHrfjVvnLRws1MBkG0-3" value="Go to Dashboard" style="rounded=1;whiteSpace=wrap;html=1;arcSize=40;fontColor=#000000;fillColor=#ffffc0;strokeColor=#ff0000;" vertex="1" parent="1">
          <mxGeometry x="339" y="100" width="120" height="40" as="geometry" />
        </mxCell>
        <mxCell id="SsuHrfjVvnLRws1MBkG0-4" value="" style="edgeStyle=orthogonalEdgeStyle;html=1;verticalAlign=bottom;endArrow=open;endSize=8;strokeColor=#ff0000;" edge="1" source="SsuHrfjVvnLRws1MBkG0-3" parent="1">
          <mxGeometry relative="1" as="geometry">
            <mxPoint x="399" y="200" as="targetPoint" />
          </mxGeometry>
        </mxCell>
        <mxCell id="SsuHrfjVvnLRws1MBkG0-5" value="Check the Employee Shifts" style="rounded=1;whiteSpace=wrap;html=1;arcSize=40;fontColor=#000000;fillColor=#ffffc0;strokeColor=#ff0000;" vertex="1" parent="1">
          <mxGeometry x="339" y="200" width="120" height="40" as="geometry" />
        </mxCell>
        <mxCell id="SsuHrfjVvnLRws1MBkG0-6" value="" style="edgeStyle=orthogonalEdgeStyle;html=1;verticalAlign=bottom;endArrow=open;endSize=8;strokeColor=#ff0000;" edge="1" source="SsuHrfjVvnLRws1MBkG0-5" parent="1">
          <mxGeometry relative="1" as="geometry">
            <mxPoint x="399" y="300" as="targetPoint" />
          </mxGeometry>
        </mxCell>
        <mxCell id="SsuHrfjVvnLRws1MBkG0-7" value="Ask Employee for shift change" style="rounded=1;whiteSpace=wrap;html=1;arcSize=40;fontColor=#000000;fillColor=#ffffc0;strokeColor=#ff0000;" vertex="1" parent="1">
          <mxGeometry x="339" y="300" width="120" height="40" as="geometry" />
        </mxCell>
        <mxCell id="SsuHrfjVvnLRws1MBkG0-8" value="" style="edgeStyle=orthogonalEdgeStyle;html=1;verticalAlign=bottom;endArrow=open;endSize=8;strokeColor=#ff0000;" edge="1" source="SsuHrfjVvnLRws1MBkG0-7" parent="1">
          <mxGeometry relative="1" as="geometry">
            <mxPoint x="399" y="400" as="targetPoint" />
          </mxGeometry>
        </mxCell>
        <mxCell id="SsuHrfjVvnLRws1MBkG0-9" value="" style="rhombus;whiteSpace=wrap;html=1;fillColor=#ffffc0;strokeColor=#ff0000;" vertex="1" parent="1">
          <mxGeometry x="360" y="400" width="80" height="40" as="geometry" />
        </mxCell>
        <mxCell id="SsuHrfjVvnLRws1MBkG0-10" value="" style="edgeStyle=orthogonalEdgeStyle;html=1;align=left;verticalAlign=bottom;endArrow=open;endSize=8;strokeColor=#ff0000;entryX=0.5;entryY=1;entryDx=0;entryDy=0;" edge="1" source="SsuHrfjVvnLRws1MBkG0-9" parent="1" target="SsuHrfjVvnLRws1MBkG0-15">
          <mxGeometry x="-1" relative="1" as="geometry">
            <mxPoint x="560" y="420" as="targetPoint" />
          </mxGeometry>
        </mxCell>
        <mxCell id="SsuHrfjVvnLRws1MBkG0-11" value="" style="edgeStyle=orthogonalEdgeStyle;html=1;align=left;verticalAlign=top;endArrow=open;endSize=8;strokeColor=#ff0000;" edge="1" source="SsuHrfjVvnLRws1MBkG0-9" parent="1">
          <mxGeometry y="30" relative="1" as="geometry">
            <mxPoint x="400" y="500" as="targetPoint" />
            <mxPoint as="offset" />
          </mxGeometry>
        </mxCell>
        <mxCell id="SsuHrfjVvnLRws1MBkG0-14" value="Employee Unavailable" style="text;html=1;align=center;verticalAlign=middle;resizable=0;points=[];autosize=1;" vertex="1" parent="1">
          <mxGeometry x="425" y="391" width="130" height="20" as="geometry" />
        </mxCell>
        <mxCell id="SsuHrfjVvnLRws1MBkG0-15" value="Look for another Employee" style="rounded=1;whiteSpace=wrap;html=1;arcSize=40;fontColor=#000000;fillColor=#ffffc0;strokeColor=#ff0000;" vertex="1" parent="1">
          <mxGeometry x="555" y="330" width="120" height="40" as="geometry" />
        </mxCell>
        <mxCell id="SsuHrfjVvnLRws1MBkG0-16" value="" style="edgeStyle=orthogonalEdgeStyle;html=1;verticalAlign=bottom;endArrow=open;endSize=8;strokeColor=#ff0000;exitX=0.5;exitY=0;exitDx=0;exitDy=0;" edge="1" source="SsuHrfjVvnLRws1MBkG0-15" parent="1">
          <mxGeometry relative="1" as="geometry">
            <mxPoint x="460" y="320" as="targetPoint" />
            <Array as="points">
              <mxPoint x="615" y="320" />
            </Array>
          </mxGeometry>
        </mxCell>
        <mxCell id="SsuHrfjVvnLRws1MBkG0-17" value="Employee&lt;br&gt;Available" style="text;html=1;align=center;verticalAlign=middle;resizable=0;points=[];autosize=1;" vertex="1" parent="1">
          <mxGeometry x="335" y="445" width="70" height="30" as="geometry" />
        </mxCell>
        <mxCell id="SsuHrfjVvnLRws1MBkG0-18" value="Shift is Changed" style="rounded=1;whiteSpace=wrap;html=1;arcSize=40;fontColor=#000000;fillColor=#ffffc0;strokeColor=#ff0000;" vertex="1" parent="1">
          <mxGeometry x="339" y="500" width="120" height="40" as="geometry" />
        </mxCell>
        <mxCell id="SsuHrfjVvnLRws1MBkG0-19" value="" style="edgeStyle=orthogonalEdgeStyle;html=1;verticalAlign=bottom;endArrow=open;endSize=8;strokeColor=#ff0000;" edge="1" source="SsuHrfjVvnLRws1MBkG0-18" parent="1">
          <mxGeometry relative="1" as="geometry">
            <mxPoint x="399" y="600" as="targetPoint" />
          </mxGeometry>
        </mxCell>
        <mxCell id="SsuHrfjVvnLRws1MBkG0-20" value="Back to Employees&#39; Table" style="rounded=1;whiteSpace=wrap;html=1;arcSize=40;fontColor=#000000;fillColor=#ffffc0;strokeColor=#ff0000;" vertex="1" parent="1">
          <mxGeometry x="340" y="600" width="120" height="40" as="geometry" />
        </mxCell>
        <mxCell id="SsuHrfjVvnLRws1MBkG0-21" value="" style="edgeStyle=orthogonalEdgeStyle;html=1;verticalAlign=bottom;endArrow=open;endSize=8;strokeColor=#ff0000;" edge="1" source="SsuHrfjVvnLRws1MBkG0-20" parent="1">
          <mxGeometry relative="1" as="geometry">
            <mxPoint x="400" y="700" as="targetPoint" />
          </mxGeometry>
        </mxCell>
        <mxCell id="SsuHrfjVvnLRws1MBkG0-22" value="" style="ellipse;html=1;shape=endState;fillColor=#000000;strokeColor=#ff0000;" vertex="1" parent="1">
          <mxGeometry x="384" y="700" width="30" height="30" as="geometry" />
        </mxCell>
      </root>
    </mxGraphModel>
  </diagram>
</mxfile>
